<?xml version="1.0" encoding="iso-8859-1"?>
<!-- Generator: Adobe Illustrator 19.0.0, SVG Export Plug-In . SVG Version: 6.00 Build 0)  -->
<svg xmlns="http://www.w3.org/2000/svg" xmlns:xlink="http://www.w3.org/1999/xlink" version="1.1" id="Capa_1" x="0px" y="0px" viewBox="0 0 312.451 312.451" style="enable-background:new 0 0 312.451 312.451;" xml:space="preserve" width="512px" height="512px">
<g>
	<g>
		<g>
			<path d="M307.2,224.425L88.4,5.625c-3.6-3.6-8.4-5.6-13.6-5.6c-4.8,0-9.6,2-13.6,5.6l-55.6,55.6c-3.6,3.6-5.6,8.4-5.6,13.6     c0,4.8,1.6,9.2,5.2,13.2l0.4,0.4l63.2,63.2l19.6,19.6l39.6,39.6l19.6,19.6l59.6,59.6l16.8,16.8c3.6,3.6,8.4,5.6,13.6,5.6     s9.6-2,13.6-5.6l55.6-55.6c3.6-3.6,5.6-8.4,5.6-13.6C312.8,233.225,310.8,228.425,307.2,224.425z M298,242.425l-55.6,55.6     c-1.2,1.2-2.8,2-4.4,2c-1.6,0-3.2-0.8-4.4-2l-12.4-12.4l21.6-21.6c2.4-2.4,2.4-6.4,0-8.8c-2.4-2.4-6.4-2.4-8.8,0l-21.6,21.6     l-10.8-10.8l8.4-8.4c2.4-2.4,2.4-6.4,0-8.8c-2.4-2.4-6.4-2.4-8.8,0l-8.8,8l-10.8-10.8l21.6-21.6c2.4-2.4,2.4-6.4,0-8.8     c-2.4-2.4-6.4-2.4-8.8,0l-22,21.6l-10.8-10.8l8.4-8.4c2.4-2.4,2.4-6.4,0-8.8c-2.4-2.4-6.4-2.4-8.8,0l-8.4,8.4l-10.8-10.8     l21.6-21.6c2.4-2.4,2.4-6.4,0-8.8c-2.4-2.4-6.4-2.4-8.8,0l-21.6,21.6l-10.8-10.8l8.4-8.4c2.4-2.4,2.4-6.4,0-8.8     c-2.4-2.4-6.4-2.4-8.8,0l-8.4,8.4l-10.8-10.8l21.6-21.6c2.4-2.4,2.4-6.4,0-8.8c-2.4-2.4-6.4-2.4-8.8,0l-21.6,21.6l-10.8-10.8     l8.4-8.4c2.4-2.4,2.4-6.4,0-8.8c-2.4-2.4-6.4-2.4-8.8,0l-8.4,8.4l-10.8-10.8l21.6-21.6c2.4-2.4,2.4-6.4,0-8.8     c-2.4-2.4-6.4-2.4-8.8,0l-21.6,21.6l-39.2-39.2l-0.4-0.4c-1.2-1.2-1.6-2.8-1.6-4.4c0-1.6,0.8-3.2,2-4.4l55.6-55.6     c1.2-1.2,2.8-2,4.4-2c1.6,0,3.2,0.8,4.4,2l218.8,218.8c1.2,1.2,2,2.8,2,4.4C300,239.625,299.6,241.225,298,242.425z" fill="#FFFFFF"/>
			<path d="M74.8,49.225c-3.6-3.6-8-5.2-12.8-5.2c-4.8,0-9.2,1.6-12.8,5.2c-3.6,3.6-5.2,8-5.2,12.8c0,4.8,1.6,9.2,5.2,12.8     c3.6,3.6,8,5.2,12.8,5.2c4.8,0,9.2-1.6,12.8-5.2c3.6-3.6,5.2-8,5.2-12.8c0-4.4-1.6-8.8-4.8-12.4     C74.8,49.625,74.8,49.225,74.8,49.225z M65.6,65.625c-1.2,1.2-2.4,1.6-3.6,1.6c-1.2,0-2.8-0.4-3.6-1.6c-1.2-1.2-1.6-2.4-1.6-3.6     s0.4-2.8,1.6-3.6c1.2-1.2,2.4-1.6,3.6-1.6s2.8,0.4,3.6,1.6l0.4,0.4c0.8,1.2,1.2,2.4,1.2,3.6C67.2,63.225,66.8,64.825,65.6,65.625     z" fill="#FFFFFF"/>
		</g>
	</g>
</g>
<g>
</g>
<g>
</g>
<g>
</g>
<g>
</g>
<g>
</g>
<g>
</g>
<g>
</g>
<g>
</g>
<g>
</g>
<g>
</g>
<g>
</g>
<g>
</g>
<g>
</g>
<g>
</g>
<g>
</g>
</svg>
