<?xml version="1.0" encoding="iso-8859-1"?>
<!-- Generator: Adobe Illustrator 19.0.0, SVG Export Plug-In . SVG Version: 6.00 Build 0)  -->
<svg xmlns="http://www.w3.org/2000/svg" xmlns:xlink="http://www.w3.org/1999/xlink" version="1.1" id="Capa_1" x="0px" y="0px" viewBox="0 0 382.5 382.5" style="enable-background:new 0 0 382.5 382.5;" xml:space="preserve" width="512px" height="512px">
<g>
	<g>
		<path d="M359.65,87.7c0-2.8-2-5.6-4.4-6.8l-160-80c-2.4-1.2-5.2-1.2-7.6,0l-160,80c-2.8,1.2-4.4,4-4.8,6.8    c-0.4,6.8-9.6,166,163.6,293.2c1.6,1.2,3.2,1.6,4.8,1.6c1.6,0,3.6-0.4,4.8-1.6C369.25,253.7,360.05,94.5,359.65,87.7z     M191.25,363.7c-144.4-108.8-152-243.2-151.6-270l151.6-76l151.6,76C343.25,120.5,335.65,254.9,191.25,363.7z" fill="#D80027"/>
	</g>
</g>
<g>
	<g>
		<path d="M261.65,135.3c-2.8-3.6-8.4-4-12-1.2l-86,70.8l-26.8-53.6c-2-4-7.2-6-11.2-3.6c-4,2-6,7.2-3.6,11.2l31.6,62.8    c1.2,2.4,3.2,4,5.6,4.4h1.6c2,0,4-0.8,5.2-2l94.4-76.8C264.05,144.5,264.45,138.9,261.65,135.3z" fill="#D80027"/>
	</g>
</g>
<g>
</g>
<g>
</g>
<g>
</g>
<g>
</g>
<g>
</g>
<g>
</g>
<g>
</g>
<g>
</g>
<g>
</g>
<g>
</g>
<g>
</g>
<g>
</g>
<g>
</g>
<g>
</g>
<g>
</g>
</svg>
