<?xml version="1.0" encoding="iso-8859-1"?>
<!-- Generator: Adobe Illustrator 19.0.0, SVG Export Plug-In . SVG Version: 6.00 Build 0)  -->
<svg xmlns="http://www.w3.org/2000/svg" xmlns:xlink="http://www.w3.org/1999/xlink" version="1.1" id="Capa_1" x="0px" y="0px" viewBox="0 0 512 512" style="enable-background:new 0 0 512 512;" xml:space="preserve" width="512px" height="512px">
<g>
	<g>
		<path d="M277.618,56.889H44.373c-9.427,0-17.067,7.64-17.067,17.067v420.978c0,9.426,7.64,17.067,17.067,17.067h233.244    c9.426,0,17.067-7.64,17.067-17.067V73.956C294.684,64.529,287.044,56.889,277.618,56.889z M260.551,477.867H61.44V91.022h199.111    V477.867z" fill="#FFFFFF"/>
	</g>
</g>
<g>
	<g>
		<rect x="177.493" y="284.444" width="34.133" height="56.889" fill="#FFFFFF"/>
	</g>
</g>
<g>
	<g>
		<rect x="109.227" y="284.444" width="34.133" height="56.889" fill="#FFFFFF"/>
	</g>
</g>
<g>
	<g>
		<path d="M194.56,369.778h-68.267c-9.426,0-17.067,7.64-17.067,17.067v108.089h34.133v-91.022h34.133v91.022h34.133V386.844    C211.627,377.418,203.987,369.778,194.56,369.778z" fill="#FFFFFF"/>
	</g>
</g>
<g>
	<g>
		<rect x="177.493" y="199.111" width="34.133" height="56.889" fill="#FFFFFF"/>
	</g>
</g>
<g>
	<g>
		<rect x="109.227" y="199.111" width="34.133" height="56.889" fill="#FFFFFF"/>
	</g>
</g>
<g>
	<g>
		<rect x="177.493" y="113.778" width="34.133" height="56.889" fill="#FFFFFF"/>
	</g>
</g>
<g>
	<g>
		<rect x="109.227" y="113.778" width="34.133" height="56.889" fill="#FFFFFF"/>
	</g>
</g>
<g>
	<g>
		<path d="M220.729,0H101.262c-9.426,0-17.067,7.64-17.067,17.067v56.889h34.133V34.133h85.333v39.822h34.133V17.067    C237.796,7.64,230.155,0,220.729,0z" fill="#FFFFFF"/>
	</g>
</g>
<g>
	<g>
		<path d="M467.627,176.356H279.893v34.133H450.56v267.378H279.893V512h187.733c9.427,0,17.067-7.64,17.067-17.067V193.422    C484.693,183.996,477.053,176.356,467.627,176.356z" fill="#FFFFFF"/>
	</g>
</g>
<g>
	<g>
		<rect x="391.396" y="403.911" width="34.133" height="56.889" fill="#FFFFFF"/>
	</g>
</g>
<g>
	<g>
		<rect x="323.129" y="403.911" width="34.133" height="56.889" fill="#FFFFFF"/>
	</g>
</g>
<g>
	<g>
		<rect x="391.396" y="318.578" width="34.133" height="56.889" fill="#FFFFFF"/>
	</g>
</g>
<g>
	<g>
		<rect x="323.129" y="318.578" width="34.133" height="56.889" fill="#FFFFFF"/>
	</g>
</g>
<g>
	<g>
		<rect x="391.396" y="233.244" width="34.133" height="56.889" fill="#FFFFFF"/>
	</g>
</g>
<g>
	<g>
		<rect x="323.129" y="233.244" width="34.133" height="56.889" fill="#FFFFFF"/>
	</g>
</g>
<g>
</g>
<g>
</g>
<g>
</g>
<g>
</g>
<g>
</g>
<g>
</g>
<g>
</g>
<g>
</g>
<g>
</g>
<g>
</g>
<g>
</g>
<g>
</g>
<g>
</g>
<g>
</g>
<g>
</g>
</svg>
