<?xml version="1.0" encoding="iso-8859-1"?>
<!-- Generator: Adobe Illustrator 19.0.0, SVG Export Plug-In . SVG Version: 6.00 Build 0)  -->
<svg xmlns="http://www.w3.org/2000/svg" xmlns:xlink="http://www.w3.org/1999/xlink" version="1.1" id="Capa_1" x="0px" y="0px" viewBox="0 0 284.228 284.228" style="enable-background:new 0 0 284.228 284.228;" xml:space="preserve" width="512px" height="512px">
<g>
	<g>
		<path d="M275.028,224.814l-193.6-192.8c-0.4-0.4-1.2-1.2-2-1.2l-70.8-30c-1.6-0.8-3.2-0.8-4.8,0c-3.2,1.2-4.8,5.2-3.2,8.4l8,18.4    l22,52c0.4,0.8,0.8,1.6,1.6,2.4l192.8,192.8c6,6,14.4,9.2,22.4,9.2s16-3.2,22.4-9.2l2.4-2.4l2.4-2.4l0.4-0.4    c6-6,9.2-14.4,9.2-22.4S281.028,231.214,275.028,224.814z M51.828,73.214c-1.6,1.6-3.6,2.4-5.6,2.4s-3.6-0.8-5.2-2l-19.2-45.2    c1.2-0.8,2-1.6,3.2-2.4c0.8-0.8,1.6-2,2.4-3.2l45.6,19.2c1.2,1.6,2,3.2,2,5.2s-0.8,4-2.4,5.6c-1.6,1.6-3.6,2.4-5.6,2.4    s-4-0.8-5.6-2.4c-2.4-2.4-6.4-2.4-8.8,0c-2.4,2.4-2.4,6.4,0,8.8c0.8,1.6,1.6,3.6,1.6,5.6s-0.8,4-2,5.6L51.828,73.214z     M246.228,271.214c-4.4,0-9.2-2-12.8-5.6l-179.2-179.2c2.4-1.2,4.8-2.4,6.8-4.4l0.4-0.4c2-2,3.2-4,4-6.4l192,192    C254.228,269.614,250.228,271.214,246.228,271.214z M266.628,258.414l-192-192c2.4-1.2,4.8-2.4,6.8-4.4c2-2,3.6-4.4,4.4-6.8    l179.2,178.8c3.6,3.6,5.6,8.4,5.6,13.2C270.628,251.214,269.028,254.814,266.628,258.414z" fill="#FFFFFF"/>
	</g>
</g>
<g>
</g>
<g>
</g>
<g>
</g>
<g>
</g>
<g>
</g>
<g>
</g>
<g>
</g>
<g>
</g>
<g>
</g>
<g>
</g>
<g>
</g>
<g>
</g>
<g>
</g>
<g>
</g>
<g>
</g>
</svg>
